<?xml version="1.0" encoding="utf-8" standalone="no"?>
<!DOCTYPE svg PUBLIC "-//W3C//DTD SVG 1.1//EN"
  "http://www.w3.org/Graphics/SVG/1.1/DTD/svg11.dtd">
<svg xmlns:xlink="http://www.w3.org/1999/xlink" width="424.377541pt" height="411.411948pt" viewBox="0 0 424.377541 411.411948" xmlns="http://www.w3.org/2000/svg" version="1.1">
 <metadata>
  <rdf:RDF xmlns:dc="http://purl.org/dc/elements/1.1/" xmlns:cc="http://creativecommons.org/ns#" xmlns:rdf="http://www.w3.org/1999/02/22-rdf-syntax-ns#">
   <cc:Work>
    <dc:type rdf:resource="http://purl.org/dc/dcmitype/StillImage"/>
    <dc:date>2026-04-24T00:31:28.250281</dc:date>
    <dc:format>image/svg+xml</dc:format>
    <dc:creator>
     <cc:Agent>
      <dc:title>Matplotlib v3.10.0, https://matplotlib.org/</dc:title>
     </cc:Agent>
    </dc:creator>
   </cc:Work>
  </rdf:RDF>
 </metadata>
 <defs>
  <style type="text/css">*{stroke-linejoin: round; stroke-linecap: butt}</style>
 </defs>
 <g id="figure_1">
  <g id="patch_1">
   <path d="M 0 411.411948 
L 424.377541 411.411948 
L 424.377541 -0 
L 0 -0 
z
" style="fill: #ffffff"/>
  </g>
  <g id="axes_1">
   <g id="patch_2">
    <path d="M 31.607196 390.127401 
L 411.767196 390.127401 
L 411.767196 9.967401 
L 31.607196 9.967401 
z
" style="fill: #ffffff"/>
   </g>
   <g id="matplotlib.axis_1">
    <g id="xtick_1">
     <g id="line2d_1">
      <defs>
       <path id="m7e26bfedaf" d="M 0 0 
L 0 3.5 
" style="stroke: #b8b7b7; stroke-width: 0.8"/>
      </defs>
      <g>
       <use xlink:href="#m7e26bfedaf" x="31.607196" y="390.127401" style="fill: #b8b7b7; stroke: #b8b7b7; stroke-width: 0.8"/>
      </g>
     </g>
     <g id="text_1">
      <!-- $\mathdefault{−2.0}$ -->
      <g transform="translate(22.903598 402.662203) scale(0.08 -0.08)">
       <defs>
        <path id="CMSY10-0" d="M 4218 1472 
C 4326 1472 4442 1472 4442 1600 
C 4442 1728 4326 1728 4218 1728 
L 755 1728 
C 646 1728 531 1728 531 1600 
C 531 1472 646 1472 755 1472 
L 4218 1472 
z
" transform="scale(0.015625)"/>
        <path id="CMR17-32" d="M 2669 990 
L 2554 990 
C 2490 537 2438 460 2413 422 
C 2381 371 1920 371 1830 371 
L 602 371 
C 832 620 1280 1073 1824 1596 
C 2214 1966 2669 2400 2669 3033 
C 2669 3788 2067 4224 1395 4224 
C 691 4224 262 3603 262 3027 
C 262 2777 448 2745 525 2745 
C 589 2745 781 2783 781 3007 
C 781 3206 614 3264 525 3264 
C 486 3264 448 3257 422 3244 
C 544 3788 915 4057 1306 4057 
C 1862 4057 2227 3616 2227 3033 
C 2227 2477 1901 1998 1536 1583 
L 262 147 
L 262 0 
L 2515 0 
L 2669 990 
z
" transform="scale(0.015625)"/>
        <path id="CMMI12-3a" d="M 1178 307 
C 1178 492 1024 620 870 620 
C 685 620 557 467 557 313 
C 557 128 710 0 864 0 
C 1050 0 1178 153 1178 307 
z
" transform="scale(0.015625)"/>
        <path id="CMR17-30" d="M 2688 2038 
C 2688 2430 2682 3099 2413 3613 
C 2176 4063 1798 4224 1466 4224 
C 1158 4224 768 4082 525 3620 
C 269 3137 243 2539 243 2038 
C 243 1671 250 1112 448 623 
C 723 -39 1216 -128 1466 -128 
C 1760 -128 2208 -7 2470 604 
C 2662 1048 2688 1568 2688 2038 
z
M 1466 -26 
C 1056 -26 813 328 723 816 
C 653 1196 653 1749 653 2109 
C 653 2604 653 3015 736 3407 
C 858 3954 1216 4121 1466 4121 
C 1728 4121 2067 3947 2189 3420 
C 2272 3054 2278 2623 2278 2109 
C 2278 1691 2278 1176 2202 797 
C 2067 96 1690 -26 1466 -26 
z
" transform="scale(0.015625)"/>
       </defs>
       <use xlink:href="#CMSY10-0" transform="scale(0.996264)"/>
       <use xlink:href="#CMR17-32" transform="translate(77.487468 0) scale(0.996264)"/>
       <use xlink:href="#CMMI12-3a" transform="translate(123.177945 0) scale(0.996264)"/>
       <use xlink:href="#CMR17-30" transform="translate(150.275122 0) scale(0.996264)"/>
      </g>
     </g>
    </g>
    <g id="xtick_2">
     <g id="line2d_2">
      <g>
       <use xlink:href="#m7e26bfedaf" x="79.127196" y="390.127401" style="fill: #b8b7b7; stroke: #b8b7b7; stroke-width: 0.8"/>
      </g>
     </g>
     <g id="text_2">
      <!-- $\mathdefault{−1.5}$ -->
      <g transform="translate(70.423598 402.662203) scale(0.08 -0.08)">
       <defs>
        <path id="CMR17-31" d="M 1702 4083 
C 1702 4217 1696 4224 1606 4224 
C 1357 3927 979 3833 621 3820 
C 602 3820 570 3820 563 3808 
C 557 3795 557 3782 557 3648 
C 755 3648 1088 3686 1344 3839 
L 1344 467 
C 1344 243 1331 166 781 166 
L 589 166 
L 589 0 
C 896 6 1216 12 1523 12 
C 1830 12 2150 6 2458 0 
L 2458 166 
L 2266 166 
C 1715 166 1702 236 1702 467 
L 1702 4083 
z
" transform="scale(0.015625)"/>
        <path id="CMR17-35" d="M 730 3750 
C 794 3724 1056 3641 1325 3641 
C 1920 3641 2246 3961 2432 4140 
C 2432 4191 2432 4224 2394 4224 
C 2387 4224 2374 4224 2323 4198 
C 2099 4102 1837 4032 1517 4032 
C 1325 4032 1037 4055 723 4191 
C 653 4224 640 4224 634 4224 
C 602 4224 595 4217 595 4090 
L 595 2231 
C 595 2113 595 2080 659 2080 
C 691 2080 704 2093 736 2139 
C 941 2435 1222 2560 1542 2560 
C 1766 2560 2246 2415 2246 1293 
C 2246 1087 2246 716 2054 422 
C 1894 159 1645 25 1370 25 
C 947 25 518 319 403 812 
C 429 806 480 793 506 793 
C 589 793 749 838 749 1036 
C 749 1209 627 1280 506 1280 
C 358 1280 262 1190 262 1011 
C 262 454 704 -128 1382 -128 
C 2042 -128 2669 441 2669 1267 
C 2669 2054 2170 2662 1549 2662 
C 1222 2662 947 2540 730 2304 
L 730 3750 
z
" transform="scale(0.015625)"/>
       </defs>
       <use xlink:href="#CMSY10-0" transform="scale(0.996264)"/>
       <use xlink:href="#CMR17-31" transform="translate(77.487468 0) scale(0.996264)"/>
       <use xlink:href="#CMMI12-3a" transform="translate(123.177945 0) scale(0.996264)"/>
       <use xlink:href="#CMR17-35" transform="translate(150.275122 0) scale(0.996264)"/>
      </g>
     </g>
    </g>
    <g id="xtick_3">
     <g id="line2d_3">
      <g>
       <use xlink:href="#m7e26bfedaf" x="126.647196" y="390.127401" style="fill: #b8b7b7; stroke: #b8b7b7; stroke-width: 0.8"/>
      </g>
     </g>
     <g id="text_3">
      <!-- $\mathdefault{−1.0}$ -->
      <g transform="translate(117.943598 402.662203) scale(0.08 -0.08)">
       <use xlink:href="#CMSY10-0" transform="scale(0.996264)"/>
       <use xlink:href="#CMR17-31" transform="translate(77.487468 0) scale(0.996264)"/>
       <use xlink:href="#CMMI12-3a" transform="translate(123.177945 0) scale(0.996264)"/>
       <use xlink:href="#CMR17-30" transform="translate(150.275122 0) scale(0.996264)"/>
      </g>
     </g>
    </g>
    <g id="xtick_4">
     <g id="line2d_4">
      <g>
       <use xlink:href="#m7e26bfedaf" x="174.167196" y="390.127401" style="fill: #b8b7b7; stroke: #b8b7b7; stroke-width: 0.8"/>
      </g>
     </g>
     <g id="text_4">
      <!-- $\mathdefault{−0.5}$ -->
      <g transform="translate(165.463598 402.662203) scale(0.08 -0.08)">
       <use xlink:href="#CMSY10-0" transform="scale(0.996264)"/>
       <use xlink:href="#CMR17-30" transform="translate(77.487468 0) scale(0.996264)"/>
       <use xlink:href="#CMMI12-3a" transform="translate(123.177945 0) scale(0.996264)"/>
       <use xlink:href="#CMR17-35" transform="translate(150.275122 0) scale(0.996264)"/>
      </g>
     </g>
    </g>
    <g id="xtick_5">
     <g id="line2d_5">
      <g>
       <use xlink:href="#m7e26bfedaf" x="221.687196" y="390.127401" style="fill: #b8b7b7; stroke: #b8b7b7; stroke-width: 0.8"/>
      </g>
     </g>
     <g id="text_5">
      <!-- $\mathdefault{0.0}$ -->
      <g transform="translate(216.276851 402.662203) scale(0.08 -0.08)">
       <use xlink:href="#CMR17-30" transform="scale(0.996264)"/>
       <use xlink:href="#CMMI12-3a" transform="translate(45.690477 0) scale(0.996264)"/>
       <use xlink:href="#CMR17-30" transform="translate(72.787654 0) scale(0.996264)"/>
      </g>
     </g>
    </g>
    <g id="xtick_6">
     <g id="line2d_6">
      <g>
       <use xlink:href="#m7e26bfedaf" x="269.207196" y="390.127401" style="fill: #b8b7b7; stroke: #b8b7b7; stroke-width: 0.8"/>
      </g>
     </g>
     <g id="text_6">
      <!-- $\mathdefault{0.5}$ -->
      <g transform="translate(263.796851 402.662203) scale(0.08 -0.08)">
       <use xlink:href="#CMR17-30" transform="scale(0.996264)"/>
       <use xlink:href="#CMMI12-3a" transform="translate(45.690477 0) scale(0.996264)"/>
       <use xlink:href="#CMR17-35" transform="translate(72.787654 0) scale(0.996264)"/>
      </g>
     </g>
    </g>
    <g id="xtick_7">
     <g id="line2d_7">
      <g>
       <use xlink:href="#m7e26bfedaf" x="316.727196" y="390.127401" style="fill: #b8b7b7; stroke: #b8b7b7; stroke-width: 0.8"/>
      </g>
     </g>
     <g id="text_7">
      <!-- $\mathdefault{1.0}$ -->
      <g transform="translate(311.316851 402.662203) scale(0.08 -0.08)">
       <use xlink:href="#CMR17-31" transform="scale(0.996264)"/>
       <use xlink:href="#CMMI12-3a" transform="translate(45.690477 0) scale(0.996264)"/>
       <use xlink:href="#CMR17-30" transform="translate(72.787654 0) scale(0.996264)"/>
      </g>
     </g>
    </g>
    <g id="xtick_8">
     <g id="line2d_8">
      <g>
       <use xlink:href="#m7e26bfedaf" x="364.247196" y="390.127401" style="fill: #b8b7b7; stroke: #b8b7b7; stroke-width: 0.8"/>
      </g>
     </g>
     <g id="text_8">
      <!-- $\mathdefault{1.5}$ -->
      <g transform="translate(358.836851 402.662203) scale(0.08 -0.08)">
       <use xlink:href="#CMR17-31" transform="scale(0.996264)"/>
       <use xlink:href="#CMMI12-3a" transform="translate(45.690477 0) scale(0.996264)"/>
       <use xlink:href="#CMR17-35" transform="translate(72.787654 0) scale(0.996264)"/>
      </g>
     </g>
    </g>
    <g id="xtick_9">
     <g id="line2d_9">
      <g>
       <use xlink:href="#m7e26bfedaf" x="411.767196" y="390.127401" style="fill: #b8b7b7; stroke: #b8b7b7; stroke-width: 0.8"/>
      </g>
     </g>
     <g id="text_9">
      <!-- $\mathdefault{2.0}$ -->
      <g transform="translate(406.356851 402.662203) scale(0.08 -0.08)">
       <use xlink:href="#CMR17-32" transform="scale(0.996264)"/>
       <use xlink:href="#CMMI12-3a" transform="translate(45.690477 0) scale(0.996264)"/>
       <use xlink:href="#CMR17-30" transform="translate(72.787654 0) scale(0.996264)"/>
      </g>
     </g>
    </g>
   </g>
   <g id="matplotlib.axis_2">
    <g id="ytick_1">
     <g id="line2d_10">
      <defs>
       <path id="mdd0a1eb1f2" d="M 0 0 
L -3.5 0 
" style="stroke: #b8b7b7; stroke-width: 0.8"/>
      </defs>
      <g>
       <use xlink:href="#mdd0a1eb1f2" x="31.607196" y="390.127401" style="fill: #b8b7b7; stroke: #b8b7b7; stroke-width: 0.8"/>
      </g>
     </g>
     <g id="text_10">
      <!-- $\mathdefault{−2.0}$ -->
      <g transform="translate(7.2 392.894802) scale(0.08 -0.08)">
       <use xlink:href="#CMSY10-0" transform="scale(0.996264)"/>
       <use xlink:href="#CMR17-32" transform="translate(77.487468 0) scale(0.996264)"/>
       <use xlink:href="#CMMI12-3a" transform="translate(123.177945 0) scale(0.996264)"/>
       <use xlink:href="#CMR17-30" transform="translate(150.275122 0) scale(0.996264)"/>
      </g>
     </g>
    </g>
    <g id="ytick_2">
     <g id="line2d_11">
      <g>
       <use xlink:href="#mdd0a1eb1f2" x="31.607196" y="342.607401" style="fill: #b8b7b7; stroke: #b8b7b7; stroke-width: 0.8"/>
      </g>
     </g>
     <g id="text_11">
      <!-- $\mathdefault{−1.5}$ -->
      <g transform="translate(7.2 345.374802) scale(0.08 -0.08)">
       <use xlink:href="#CMSY10-0" transform="scale(0.996264)"/>
       <use xlink:href="#CMR17-31" transform="translate(77.487468 0) scale(0.996264)"/>
       <use xlink:href="#CMMI12-3a" transform="translate(123.177945 0) scale(0.996264)"/>
       <use xlink:href="#CMR17-35" transform="translate(150.275122 0) scale(0.996264)"/>
      </g>
     </g>
    </g>
    <g id="ytick_3">
     <g id="line2d_12">
      <g>
       <use xlink:href="#mdd0a1eb1f2" x="31.607196" y="295.087401" style="fill: #b8b7b7; stroke: #b8b7b7; stroke-width: 0.8"/>
      </g>
     </g>
     <g id="text_12">
      <!-- $\mathdefault{−1.0}$ -->
      <g transform="translate(7.2 297.854802) scale(0.08 -0.08)">
       <use xlink:href="#CMSY10-0" transform="scale(0.996264)"/>
       <use xlink:href="#CMR17-31" transform="translate(77.487468 0) scale(0.996264)"/>
       <use xlink:href="#CMMI12-3a" transform="translate(123.177945 0) scale(0.996264)"/>
       <use xlink:href="#CMR17-30" transform="translate(150.275122 0) scale(0.996264)"/>
      </g>
     </g>
    </g>
    <g id="ytick_4">
     <g id="line2d_13">
      <g>
       <use xlink:href="#mdd0a1eb1f2" x="31.607196" y="247.567401" style="fill: #b8b7b7; stroke: #b8b7b7; stroke-width: 0.8"/>
      </g>
     </g>
     <g id="text_13">
      <!-- $\mathdefault{−0.5}$ -->
      <g transform="translate(7.2 250.334802) scale(0.08 -0.08)">
       <use xlink:href="#CMSY10-0" transform="scale(0.996264)"/>
       <use xlink:href="#CMR17-30" transform="translate(77.487468 0) scale(0.996264)"/>
       <use xlink:href="#CMMI12-3a" transform="translate(123.177945 0) scale(0.996264)"/>
       <use xlink:href="#CMR17-35" transform="translate(150.275122 0) scale(0.996264)"/>
      </g>
     </g>
    </g>
    <g id="ytick_5">
     <g id="line2d_14">
      <g>
       <use xlink:href="#mdd0a1eb1f2" x="31.607196" y="200.047401" style="fill: #b8b7b7; stroke: #b8b7b7; stroke-width: 0.8"/>
      </g>
     </g>
     <g id="text_14">
      <!-- $\mathdefault{0.0}$ -->
      <g transform="translate(13.786507 202.814802) scale(0.08 -0.08)">
       <use xlink:href="#CMR17-30" transform="scale(0.996264)"/>
       <use xlink:href="#CMMI12-3a" transform="translate(45.690477 0) scale(0.996264)"/>
       <use xlink:href="#CMR17-30" transform="translate(72.787654 0) scale(0.996264)"/>
      </g>
     </g>
    </g>
    <g id="ytick_6">
     <g id="line2d_15">
      <g>
       <use xlink:href="#mdd0a1eb1f2" x="31.607196" y="152.527401" style="fill: #b8b7b7; stroke: #b8b7b7; stroke-width: 0.8"/>
      </g>
     </g>
     <g id="text_15">
      <!-- $\mathdefault{0.5}$ -->
      <g transform="translate(13.786507 155.294802) scale(0.08 -0.08)">
       <use xlink:href="#CMR17-30" transform="scale(0.996264)"/>
       <use xlink:href="#CMMI12-3a" transform="translate(45.690477 0) scale(0.996264)"/>
       <use xlink:href="#CMR17-35" transform="translate(72.787654 0) scale(0.996264)"/>
      </g>
     </g>
    </g>
    <g id="ytick_7">
     <g id="line2d_16">
      <g>
       <use xlink:href="#mdd0a1eb1f2" x="31.607196" y="105.007401" style="fill: #b8b7b7; stroke: #b8b7b7; stroke-width: 0.8"/>
      </g>
     </g>
     <g id="text_16">
      <!-- $\mathdefault{1.0}$ -->
      <g transform="translate(13.786507 107.774802) scale(0.08 -0.08)">
       <use xlink:href="#CMR17-31" transform="scale(0.996264)"/>
       <use xlink:href="#CMMI12-3a" transform="translate(45.690477 0) scale(0.996264)"/>
       <use xlink:href="#CMR17-30" transform="translate(72.787654 0) scale(0.996264)"/>
      </g>
     </g>
    </g>
    <g id="ytick_8">
     <g id="line2d_17">
      <g>
       <use xlink:href="#mdd0a1eb1f2" x="31.607196" y="57.487401" style="fill: #b8b7b7; stroke: #b8b7b7; stroke-width: 0.8"/>
      </g>
     </g>
     <g id="text_17">
      <!-- $\mathdefault{1.5}$ -->
      <g transform="translate(13.786507 60.254802) scale(0.08 -0.08)">
       <use xlink:href="#CMR17-31" transform="scale(0.996264)"/>
       <use xlink:href="#CMMI12-3a" transform="translate(45.690477 0) scale(0.996264)"/>
       <use xlink:href="#CMR17-35" transform="translate(72.787654 0) scale(0.996264)"/>
      </g>
     </g>
    </g>
    <g id="ytick_9">
     <g id="line2d_18">
      <g>
       <use xlink:href="#mdd0a1eb1f2" x="31.607196" y="9.967401" style="fill: #b8b7b7; stroke: #b8b7b7; stroke-width: 0.8"/>
      </g>
     </g>
     <g id="text_18">
      <!-- $\mathdefault{2.0}$ -->
      <g transform="translate(13.786507 12.734802) scale(0.08 -0.08)">
       <use xlink:href="#CMR17-32" transform="scale(0.996264)"/>
       <use xlink:href="#CMMI12-3a" transform="translate(45.690477 0) scale(0.996264)"/>
       <use xlink:href="#CMR17-30" transform="translate(72.787654 0) scale(0.996264)"/>
      </g>
     </g>
    </g>
   </g>
   <g id="QuadContourSet_1">
    <path d="M 210.640463 350.54845 
L 210.114541 350.511529 
L 209.878619 350.494898 
L 209.116775 350.437177 
L 208.354932 350.375441 
L 207.593088 350.309688 
L 206.831244 350.239916 
L 206.069401 350.166122 
L 205.307557 350.088304 
L 204.545713 350.00646 
L 203.78387 349.920587 
L 203.022026 349.830682 
L 202.365154 349.749685 
L 202.260182 349.736687 
L 201.498338 349.638299 
L 200.736495 349.535856 
L 199.974651 349.429356 
L 199.212807 349.318793 
L 198.450964 349.204166 
L 197.68912 349.08547 
L 197.083282 348.987842 
L 196.927276 348.962594 
L 196.165433 348.835217 
L 195.403589 348.703746 
L 194.641745 348.568177 
L 193.879902 348.428505 
L 193.118058 348.284726 
L 192.8155 348.225998 
L 192.356214 348.136458 
L 191.594371 347.983812 
L 190.832527 347.827032 
L 190.070683 347.666113 
L 189.308839 347.501048 
L 189.142707 347.464154 
L 188.546996 347.33127 
L 187.785152 347.157168 
L 187.023308 346.978891 
L 186.261465 346.796435 
L 185.877218 346.702311 
L 185.499621 346.609394 
L 184.737777 346.417745 
L 183.975934 346.221885 
L 183.21409 346.021807 
L 182.910716 345.940467 
L 182.452246 345.816972 
L 181.690403 345.607542 
L 180.928559 345.393862 
L 180.17615 345.178623 
L 180.166715 345.175911 
L 179.404872 344.952738 
L 178.643028 344.725282 
L 177.881184 344.493533 
L 177.633397 344.41678 
L 177.11934 344.25678 
L 176.357497 344.015368 
L 175.595653 343.769629 
L 175.246167 343.654936 
L 174.833809 343.518946 
L 174.071966 343.263395 
L 173.310122 343.003478 
L 172.991841 342.893092 
L 172.548278 342.738489 
L 171.786435 342.468607 
L 171.024591 342.19432 
L 170.852115 342.131249 
L 170.262747 341.914632 
L 169.500904 341.630222 
L 168.812974 341.369405 
L 168.73906 341.341237 
L 167.977216 341.046571 
L 167.215373 340.74743 
L 166.864316 340.607561 
L 166.453529 340.443033 
L 165.691685 340.133472 
L 164.993668 339.845718 
L 164.929841 339.819265 
L 164.167998 339.499142 
L 163.406154 339.174469 
L 163.196426 339.083874 
L 162.64431 338.844083 
L 161.882467 338.508676 
L 161.464134 338.32203 
L 161.120623 338.167921 
L 160.358779 337.821634 
L 159.791084 337.560186 
L 159.596936 337.470271 
L 158.835092 337.112955 
L 158.172887 336.798343 
L 158.073248 336.750734 
L 157.311405 336.382239 
L 156.605579 336.036499 
L 156.549561 336.0089 
L 155.787717 335.629069 
L 155.085573 335.274655 
L 155.025874 335.244344 
L 154.26403 334.85302 
L 153.609618 334.512812 
L 153.502186 334.456628 
L 152.740342 334.053649 
L 152.17476 333.750968 
L 151.978499 333.645299 
L 151.216655 333.230502 
L 150.778309 332.989124 
L 150.454811 332.809893 
L 149.692968 332.383109 
L 149.417817 332.227281 
L 148.931124 331.94993 
L 148.16928 331.510987 
L 148.091044 331.465437 
L 147.407437 331.064915 
L 146.797357 330.703593 
L 146.645593 330.613133 
L 145.883749 330.154339 
L 145.534382 329.94175 
L 145.121906 329.689123 
L 144.360062 329.21768 
L 144.299618 329.179906 
L 143.598218 328.738675 
L 143.093704 328.418062 
L 142.836375 328.253438 
L 142.074531 327.761237 
L 141.913538 327.656219 
L 141.312687 327.261612 
L 140.758948 326.894375 
L 140.550843 326.755411 
L 139.789 326.241844 
L 139.628346 326.132531 
L 139.027156 325.720616 
L 138.52122 325.370687 
L 138.265312 325.192439 
L 137.503469 324.656877 
L 137.435748 324.608844 
L 136.741625 324.112994 
L 136.372631 323.847 
L 135.979781 323.561756 
L 135.329235 323.085156 
L 135.217938 323.003019 
L 134.456094 322.435888 
L 134.306166 322.323313 
L 133.69425 321.860431 
L 133.302423 321.561469 
L 132.932407 321.277022 
L 132.316652 320.799625 
L 132.170563 320.685497 
L 131.408719 320.085358 
L 131.348814 320.037782 
L 130.646876 319.476006 
L 130.398928 319.275938 
L 129.885032 318.858035 
L 129.465486 318.514094 
L 129.123188 318.231259 
L 128.548068 317.752251 
L 128.361344 317.595485 
L 127.646268 316.990407 
L 127.599501 316.950513 
L 126.837657 316.295634 
L 126.760223 316.228563 
L 126.075813 315.630891 
L 125.889231 315.46672 
L 125.31397 314.956358 
L 125.032612 314.704876 
L 124.552126 314.271807 
L 124.19002 313.943032 
L 123.790282 313.577008 
L 123.361121 313.181188 
L 123.028439 312.871717 
L 122.545592 312.419345 
L 122.266595 312.155686 
L 121.743119 311.657501 
L 121.504751 311.428656 
L 120.953403 310.895657 
L 120.742908 310.690361 
L 120.17615 310.133814 
L 119.981064 309.940523 
L 119.411078 309.37197 
L 119.21922 309.178857 
L 118.657915 308.610126 
L 118.457377 308.40507 
L 117.916398 307.848283 
L 117.695533 307.618856 
L 117.186269 307.086439 
L 116.933689 306.819901 
L 116.467283 306.324595 
L 116.171845 306.007881 
L 115.7592 305.562752 
L 115.410002 305.182462 
L 115.061788 304.800908 
L 114.648158 304.343297 
L 114.374823 304.039064 
L 113.886314 303.490032 
L 113.698087 303.277221 
L 113.124471 302.6223 
L 113.031369 302.515377 
L 112.374532 301.753533 
L 112.362627 301.739586 
L 111.727888 300.991689 
L 111.600783 300.840404 
L 111.090707 300.229846 
L 110.83894 299.92539 
L 110.462803 299.468002 
L 110.077096 298.994124 
L 109.843991 298.706158 
L 109.315252 298.046168 
L 109.234093 297.944315 
L 108.633373 297.182471 
L 108.553409 297.079976 
L 108.041706 296.420627 
L 107.791565 296.094846 
L 107.45848 295.658784 
L 107.029721 295.091388 
L 106.883534 294.89694 
L 106.316974 294.135096 
L 106.267878 294.06834 
L 105.759209 293.373253 
L 105.506034 293.02344 
L 105.209291 292.611409 
L 104.74419 291.958367 
L 104.667075 291.849565 
L 104.133221 291.087722 
L 103.982346 290.869935 
L 103.607224 290.325878 
L 103.220503 289.758543 
L 103.088533 289.564034 
L 102.577645 288.80219 
L 102.458659 288.622643 
L 102.074527 288.040347 
L 101.696815 287.461033 
L 101.57834 287.278503 
L 101.089779 286.516659 
L 100.934972 286.272309 
L 100.608553 285.754816 
L 100.173128 285.056181 
L 100.133903 284.992972 
L 99.667068 284.231128 
L 99.411284 283.808549 
L 99.206798 283.469285 
L 98.753321 282.707441 
L 98.649441 282.530651 
L 98.30709 281.945597 
L 97.887597 281.219748 
L 97.86688 281.183754 
L 97.434241 280.42191 
L 97.125753 279.871756 
L 97.007528 279.660066 
L 96.587734 278.898223 
L 96.36391 278.486624 
L 96.174198 278.136379 
L 95.767066 277.374535 
L 95.602066 277.061518 
L 95.366393 276.612691 
L 94.971746 275.850848 
L 94.840222 275.593328 
L 94.583628 275.089004 
L 94.201298 274.32716 
L 94.078379 274.078645 
L 93.825432 273.565317 
L 93.455253 272.803473 
L 93.316535 272.513738 
L 93.091339 272.041629 
L 92.733154 271.279786 
L 92.554691 270.894522 
L 92.380892 270.517942 
L 92.034548 269.756098 
L 91.792847 269.216537 
L 91.693637 268.994255 
L 91.358987 268.232411 
L 91.031004 267.47492 
L 91.029126 267.470567 
L 90.706023 266.708724 
L 90.387651 265.94688 
L 90.26916 265.658609 
L 90.07521 265.185036 
L 89.768197 264.423192 
L 89.507316 263.765628 
L 89.466096 263.661349 
L 89.170305 262.899505 
L 88.879113 262.137661 
L 88.745473 261.781868 
L 88.593516 261.375818 
L 88.313369 260.613974 
L 88.037739 259.85213 
L 87.983629 259.699691 
L 87.768123 259.090287 
L 87.503365 258.328443 
L 87.243047 257.566599 
L 87.221785 257.503097 
L 86.988867 256.804756 
L 86.739249 256.042912 
L 86.493997 255.281068 
L 86.459942 255.173028 
L 86.254676 254.519225 
L 86.01995 253.757381 
L 85.78952 252.995537 
L 85.698098 252.686857 
L 85.564441 252.233693 
L 85.344356 251.47185 
L 85.1285 250.710006 
L 84.936254 250.017799 
L 84.916999 249.948162 
L 84.711295 249.186319 
L 84.509753 248.424475 
L 84.312336 247.662631 
L 84.174411 247.118433 
L 84.119509 246.900788 
L 83.932007 246.138944 
L 83.748562 245.3771 
L 83.569136 244.615257 
L 83.412567 243.935032 
L 83.393877 243.853413 
L 83.224102 243.091569 
L 83.058276 242.329726 
L 82.896364 241.567882 
L 82.738327 240.806038 
L 82.650723 240.372298 
L 82.584842 240.044194 
L 82.436113 239.282351 
L 82.291183 238.520507 
L 82.150015 237.758663 
L 82.01257 236.99682 
L 81.88888 236.292067 
L 81.878927 236.234976 
L 81.750376 235.473132 
L 81.625462 234.711289 
L 81.504144 233.949445 
L 81.386381 233.187601 
L 81.272134 232.425758 
L 81.16136 231.663914 
L 81.127036 231.419433 
L 81.054994 230.90207 
L 80.952485 230.140227 
L 80.853343 229.378383 
L 80.757524 228.616539 
L 80.664985 227.854695 
L 80.575681 227.092852 
L 80.489568 226.331008 
L 80.4066 225.569164 
L 80.365192 225.173222 
L 80.32732 224.807321 
L 80.251716 224.045477 
L 80.179122 223.283633 
L 80.109491 222.52179 
L 80.042774 221.759946 
L 79.978923 220.998102 
L 79.917892 220.236259 
L 79.859631 219.474415 
L 79.804094 218.712571 
L 79.751232 217.950728 
L 79.701 217.188884 
L 79.653349 216.42704 
L 79.608235 215.665196 
L 79.603348 215.577559 
L 79.566302 214.903353 
L 79.526879 214.141509 
L 79.489833 213.379665 
L 79.45512 212.617822 
L 79.422697 211.855978 
L 79.392521 211.094134 
L 79.364554 210.332291 
L 79.338757 209.570447 
L 79.315093 208.808603 
L 79.293528 208.04676 
L 79.27403 207.284916 
L 79.256571 206.523072 
L 79.241121 205.761229 
L 79.227658 204.999385 
L 79.21616 204.237541 
L 79.206606 203.475697 
L 79.198983 202.713854 
L 79.193277 201.95201 
L 79.189478 201.190166 
L 79.187581 200.428323 
L 79.187581 199.666479 
L 79.189478 198.904635 
L 79.193277 198.142792 
L 79.198983 197.380948 
L 79.206606 196.619104 
L 79.21616 195.857261 
L 79.227658 195.095417 
L 79.241121 194.333573 
L 79.256571 193.57173 
L 79.27403 192.809886 
L 79.293528 192.048042 
L 79.315093 191.286198 
L 79.338757 190.524355 
L 79.364554 189.762511 
L 79.392521 189.000667 
L 79.422697 188.238824 
L 79.45512 187.47698 
L 79.489833 186.715136 
L 79.526879 185.953293 
L 79.566302 185.191449 
L 79.603348 184.517243 
L 79.608235 184.429605 
L 79.653349 183.667762 
L 79.701 182.905918 
L 79.751232 182.144074 
L 79.804094 181.382231 
L 79.859631 180.620387 
L 79.917892 179.858543 
L 79.978923 179.096699 
L 80.042774 178.334856 
L 80.109491 177.573012 
L 80.179122 176.811168 
L 80.251716 176.049325 
L 80.32732 175.287481 
L 80.365192 174.92158 
L 80.4066 174.525637 
L 80.489568 173.763794 
L 80.575681 173.00195 
L 80.664985 172.240106 
L 80.757524 171.478263 
L 80.853343 170.716419 
L 80.952485 169.954575 
L 81.054994 169.192732 
L 81.127036 168.675368 
L 81.16136 168.430888 
L 81.272134 167.669044 
L 81.386381 166.9072 
L 81.504144 166.145357 
L 81.625462 165.383513 
L 81.750376 164.621669 
L 81.878927 163.859826 
L 81.88888 163.802735 
L 82.01257 163.097982 
L 82.150015 162.336138 
L 82.291183 161.574295 
L 82.436113 160.812451 
L 82.584842 160.050607 
L 82.650723 159.722504 
L 82.738327 159.288764 
L 82.896364 158.52692 
L 83.058276 157.765076 
L 83.224102 157.003233 
L 83.393877 156.241389 
L 83.412567 156.15977 
L 83.569136 155.479545 
L 83.748562 154.717701 
L 83.932007 153.955858 
L 84.119509 153.194014 
L 84.174411 152.976369 
L 84.312336 152.43217 
L 84.509753 151.670327 
L 84.711295 150.908483 
L 84.916999 150.146639 
L 84.936254 150.077003 
L 85.1285 149.384796 
L 85.344356 148.622952 
L 85.564441 147.861108 
L 85.698098 147.407945 
L 85.78952 147.099265 
L 86.01995 146.337421 
L 86.254676 145.575577 
L 86.459942 144.921773 
L 86.493997 144.813734 
L 86.739249 144.05189 
L 86.988867 143.290046 
L 87.221785 142.591705 
L 87.243047 142.528202 
L 87.503365 141.766359 
L 87.768123 141.004515 
L 87.983629 140.395111 
L 88.037739 140.242671 
L 88.313369 139.480828 
L 88.593516 138.718984 
L 88.745473 138.312934 
L 88.879113 137.95714 
L 89.170305 137.195297 
L 89.466096 136.433453 
L 89.507316 136.329174 
L 89.768197 135.671609 
L 90.07521 134.909766 
L 90.26916 134.436193 
L 90.387651 134.147922 
L 90.706023 133.386078 
L 91.029126 132.624235 
L 91.031004 132.619882 
L 91.358987 131.862391 
L 91.693637 131.100547 
L 91.792847 130.878264 
L 92.034548 130.338703 
L 92.380892 129.57686 
L 92.554691 129.20028 
L 92.733154 128.815016 
L 93.091339 128.053172 
L 93.316535 127.581064 
L 93.455253 127.291329 
L 93.825432 126.529485 
L 94.078379 126.016156 
L 94.201298 125.767641 
L 94.583628 125.005798 
L 94.840222 124.501474 
L 94.971746 124.243954 
L 95.366393 123.48211 
L 95.602066 123.033284 
L 95.767066 122.720267 
L 96.174198 121.958423 
L 96.36391 121.608178 
L 96.587734 121.196579 
L 97.007528 120.434736 
L 97.125753 120.223045 
L 97.434241 119.672892 
L 97.86688 118.911048 
L 97.887597 118.875054 
L 98.30709 118.149204 
L 98.649441 117.564151 
L 98.753321 117.387361 
L 99.206798 116.625517 
L 99.411284 116.286253 
L 99.667068 115.863673 
L 100.133903 115.10183 
L 100.173128 115.038621 
L 100.608553 114.339986 
L 100.934972 113.822493 
L 101.089779 113.578142 
L 101.57834 112.816299 
L 101.696815 112.633769 
L 102.074527 112.054455 
L 102.458659 111.472159 
L 102.577645 111.292611 
L 103.088533 110.530768 
L 103.220503 110.336259 
L 103.607224 109.768924 
L 103.982346 109.224867 
L 104.133221 109.00708 
L 104.667075 108.245237 
L 104.74419 108.136435 
L 105.209291 107.483393 
L 105.506034 107.071362 
L 105.759209 106.721549 
L 106.267878 106.026461 
L 106.316974 105.959705 
L 106.883534 105.197862 
L 107.029721 105.003414 
L 107.45848 104.436018 
L 107.791565 103.999955 
L 108.041706 103.674174 
L 108.553409 103.014826 
L 108.633373 102.912331 
L 109.234093 102.150487 
L 109.315252 102.048634 
L 109.843991 101.388643 
L 110.077096 101.100678 
L 110.462803 100.6268 
L 110.83894 100.169411 
L 111.090707 99.864956 
L 111.600783 99.254398 
L 111.727888 99.103112 
L 112.362627 98.355216 
L 112.374532 98.341269 
L 113.031369 97.579425 
L 113.124471 97.472502 
L 113.698087 96.817581 
L 113.886314 96.604769 
L 114.374823 96.055738 
L 114.648158 95.751504 
L 115.061788 95.293894 
L 115.410002 94.91234 
L 115.7592 94.53205 
L 116.171845 94.08692 
L 116.467283 93.770206 
L 116.933689 93.274901 
L 117.186269 93.008363 
L 117.695533 92.475946 
L 117.916398 92.246519 
L 118.457377 91.689732 
L 118.657915 91.484675 
L 119.21922 90.915945 
L 119.411078 90.722832 
L 119.981064 90.154279 
L 120.17615 89.960988 
L 120.742908 89.404441 
L 120.953403 89.199144 
L 121.504751 88.666145 
L 121.743119 88.437301 
L 122.266595 87.939115 
L 122.545592 87.675457 
L 123.028439 87.223084 
L 123.361121 86.913613 
L 123.790282 86.517794 
L 124.19002 86.15177 
L 124.552126 85.822994 
L 125.032612 85.389926 
L 125.31397 85.138444 
L 125.889231 84.628082 
L 126.075813 84.46391 
L 126.760223 83.866239 
L 126.837657 83.799167 
L 127.599501 83.144289 
L 127.646268 83.104395 
L 128.361344 82.499317 
L 128.548068 82.342551 
L 129.123188 81.863542 
L 129.465486 81.580707 
L 129.885032 81.236766 
L 130.398928 80.818864 
L 130.646876 80.618795 
L 131.348814 80.05702 
L 131.408719 80.009444 
L 132.170563 79.409304 
L 132.316652 79.295176 
L 132.932407 78.81778 
L 133.302423 78.533333 
L 133.69425 78.234371 
L 134.306166 77.771489 
L 134.456094 77.658914 
L 135.217938 77.091783 
L 135.329235 77.009645 
L 135.979781 76.533046 
L 136.372631 76.247802 
L 136.741625 75.981807 
L 137.435748 75.485958 
L 137.503469 75.437925 
L 138.265312 74.902363 
L 138.52122 74.724114 
L 139.027156 74.374185 
L 139.628346 73.962271 
L 139.789 73.852958 
L 140.550843 73.339391 
L 140.758948 73.200427 
L 141.312687 72.83319 
L 141.913538 72.438583 
L 142.074531 72.333564 
L 142.836375 71.841364 
L 143.093704 71.67674 
L 143.598218 71.356127 
L 144.299618 70.914896 
L 144.360062 70.877122 
L 145.121906 70.405679 
L 145.534382 70.153052 
L 145.883749 69.940463 
L 146.645593 69.481668 
L 146.797357 69.391208 
L 147.407437 69.029887 
L 148.091044 68.629365 
L 148.16928 68.583815 
L 148.931124 68.144872 
L 149.417817 67.867521 
L 149.692968 67.711693 
L 150.454811 67.284908 
L 150.778309 67.105677 
L 151.216655 66.8643 
L 151.978499 66.449502 
L 152.17476 66.343834 
L 152.740342 66.041153 
L 153.502186 65.638174 
L 153.609618 65.58199 
L 154.26403 65.241782 
L 155.025874 64.850458 
L 155.085573 64.820146 
L 155.787717 64.465732 
L 156.549561 64.085901 
L 156.605579 64.058303 
L 157.311405 63.712563 
L 158.073248 63.344067 
L 158.172887 63.296459 
L 158.835092 62.981846 
L 159.596936 62.624531 
L 159.791084 62.534615 
L 160.358779 62.273168 
L 161.120623 61.926881 
L 161.464134 61.772772 
L 161.882467 61.586126 
L 162.64431 61.250719 
L 163.196426 61.010928 
L 163.406154 60.920332 
L 164.167998 60.595659 
L 164.929841 60.275537 
L 164.993668 60.249084 
L 165.691685 59.96133 
L 166.453529 59.651768 
L 166.864316 59.487241 
L 167.215373 59.347371 
L 167.977216 59.048231 
L 168.73906 58.753565 
L 168.812974 58.725397 
L 169.500904 58.464579 
L 170.262747 58.180169 
L 170.852115 57.963553 
L 171.024591 57.900482 
L 171.786435 57.626195 
L 172.548278 57.356313 
L 172.991841 57.201709 
L 173.310122 57.091324 
L 174.071966 56.831407 
L 174.833809 56.575855 
L 175.246167 56.439866 
L 175.595653 56.325173 
L 176.357497 56.079433 
L 177.11934 55.838022 
L 177.633397 55.678022 
L 177.881184 55.601268 
L 178.643028 55.36952 
L 179.404872 55.142064 
L 180.166715 54.91889 
L 180.17615 54.916178 
L 180.928559 54.70094 
L 181.690403 54.48726 
L 182.452246 54.27783 
L 182.910716 54.154335 
L 183.21409 54.072995 
L 183.975934 53.872917 
L 184.737777 53.677057 
L 185.499621 53.485408 
L 185.877218 53.392491 
L 186.261465 53.298367 
L 187.023308 53.11591 
L 187.785152 52.937634 
L 188.546996 52.763531 
L 189.142707 52.630647 
L 189.308839 52.593754 
L 190.070683 52.428689 
L 190.832527 52.26777 
L 191.594371 52.11099 
L 192.356214 51.958344 
L 192.8155 51.868804 
L 193.118058 51.810076 
L 193.879902 51.666297 
L 194.641745 51.526625 
L 195.403589 51.391056 
L 196.165433 51.259585 
L 196.927276 51.132208 
L 197.083282 51.10696 
L 197.68912 51.009332 
L 198.450964 50.890636 
L 199.212807 50.776008 
L 199.974651 50.665446 
L 200.736495 50.558945 
L 201.498338 50.456503 
L 202.260182 50.358115 
L 202.365154 50.345116 
L 203.022026 50.26412 
L 203.78387 50.174215 
L 204.545713 50.088341 
L 205.307557 50.006497 
L 206.069401 49.92868 
L 206.831244 49.854886 
L 207.593088 49.785114 
L 208.354932 49.71936 
L 209.116775 49.657624 
L 209.878619 49.599903 
L 210.114541 49.583273 
L 210.640463 49.546352 
L 211.402306 49.496866 
L 212.16415 49.451375 
L 212.925994 49.409876 
L 213.687837 49.372367 
L 214.449681 49.338848 
L 215.211525 49.309317 
L 215.973369 49.283772 
L 216.735212 49.262212 
L 217.497056 49.244637 
L 218.2589 49.231044 
L 219.020743 49.221433 
L 219.782587 49.215804 
L 220.544431 49.214154 
L 221.306274 49.216484 
L 222.068118 49.222793 
L 222.829962 49.23308 
L 223.591805 49.247344 
L 224.353649 49.265584 
L 225.115493 49.287802 
L 225.877336 49.313995 
L 226.63918 49.344163 
L 227.401024 49.378307 
L 228.162868 49.416426 
L 228.924711 49.458519 
L 229.686555 49.504586 
L 230.448399 49.554628 
L 230.852461 49.583273 
L 231.210242 49.608757 
L 231.972086 49.667006 
L 232.73393 49.729246 
L 233.495773 49.795479 
L 234.257617 49.865703 
L 235.019461 49.939919 
L 235.781304 50.018126 
L 236.543148 50.100326 
L 237.304992 50.186518 
L 238.066835 50.276702 
L 238.620328 50.345116 
L 238.828679 50.370998 
L 239.590523 50.469619 
L 240.352366 50.572252 
L 241.11421 50.678895 
L 241.876054 50.78955 
L 242.637898 50.904216 
L 243.399741 51.022894 
L 243.921811 51.10696 
L 244.161585 51.145768 
L 244.923429 51.273069 
L 245.685272 51.404401 
L 246.447116 51.539764 
L 247.20896 51.679158 
L 247.970803 51.822585 
L 248.209661 51.868804 
L 248.732647 51.970533 
L 249.494491 52.122755 
L 250.256334 52.279027 
L 251.018178 52.43935 
L 251.780022 52.603725 
L 251.901846 52.630647 
L 252.541865 52.772849 
L 253.303709 52.946175 
L 254.065553 53.123572 
L 254.827397 53.305039 
L 255.186572 53.392491 
L 255.58924 53.49107 
L 256.351084 53.68163 
L 257.112928 53.876277 
L 257.874771 54.075015 
L 258.172787 54.154335 
L 258.636615 54.278475 
L 259.398459 54.486447 
L 260.160302 54.698526 
L 260.922146 54.914713 
L 260.927215 54.916178 
L 261.68399 55.136147 
L 262.445833 55.361711 
L 263.207677 55.591401 
L 263.489992 55.678022 
L 263.969521 55.825997 
L 264.731364 56.065192 
L 265.493208 56.308529 
L 265.897596 56.439866 
L 266.255052 56.556635 
L 267.016896 56.809606 
L 267.778739 57.066736 
L 268.172364 57.201709 
L 268.540583 57.328716 
L 269.302427 57.595607 
L 270.06427 57.866674 
L 270.332493 57.963553 
L 270.826114 58.142906 
L 271.587958 58.423863 
L 272.349801 58.709014 
L 272.392955 58.725397 
L 273.111645 58.999886 
L 273.873489 59.295055 
L 274.362625 59.487241 
L 274.635332 59.595044 
L 275.397176 59.900348 
L 276.15902 60.209875 
L 276.25426 60.249084 
L 276.920863 60.525205 
L 277.682707 60.844996 
L 278.072912 61.010928 
L 278.444551 61.169949 
L 279.206395 61.50012 
L 279.82756 61.772772 
L 279.968238 61.834909 
L 280.730082 62.175578 
L 281.491926 62.520511 
L 281.522706 62.534615 
L 282.253769 62.871711 
L 283.015613 63.227271 
L 283.162136 63.296459 
L 283.777457 63.588868 
L 284.5393 63.955171 
L 284.75136 64.058303 
L 285.301144 64.327404 
L 286.062988 64.704568 
L 286.293861 64.820146 
L 286.824831 65.087684 
L 287.586675 65.475828 
L 287.7928 65.58199 
L 288.348519 65.870081 
L 289.110362 66.269322 
L 289.251054 66.343834 
L 289.872206 66.674972 
L 290.63405 67.085429 
L 290.671248 67.105677 
L 291.395894 67.502746 
L 292.054774 67.867521 
L 292.157737 67.924907 
L 292.919581 68.353795 
L 293.404196 68.629365 
L 293.681425 68.788072 
L 294.443268 69.22852 
L 294.72194 69.391208 
L 295.205112 69.6752 
L 295.966956 70.127329 
L 296.009891 70.153052 
L 296.728799 70.586705 
L 297.267761 70.914896 
L 297.490643 71.051552 
L 298.252487 71.523008 
L 298.498632 71.67674 
L 299.01433 72.001051 
L 299.703766 72.438583 
L 299.776174 72.484856 
L 300.538018 72.976089 
L 300.882858 73.200427 
L 301.299861 73.473613 
L 302.039255 73.962271 
L 302.061705 73.977213 
L 302.823549 74.488674 
L 303.171247 74.724114 
L 303.585393 75.006538 
L 304.282477 75.485958 
L 304.347236 75.530815 
L 305.10908 76.06296 
L 305.371516 76.247802 
L 305.870924 76.602071 
L 306.440781 77.009645 
L 306.632767 77.14795 
L 307.394611 77.701242 
L 307.490559 77.771489 
L 308.156455 78.262547 
L 308.520744 78.533333 
L 308.918298 78.830999 
L 309.53339 79.295176 
L 309.680142 79.406735 
L 310.441986 79.990401 
L 310.52827 80.05702 
L 311.203829 80.582441 
L 311.505499 80.818864 
L 311.965673 81.182176 
L 312.466665 81.580707 
L 312.727517 81.789756 
L 313.412172 82.342551 
L 313.48936 82.40534 
L 314.251204 83.029674 
L 314.341714 83.104395 
L 315.013048 83.662778 
L 315.255896 83.866239 
L 315.774892 84.304338 
L 316.15567 84.628082 
L 316.536735 84.954526 
L 317.041384 85.389926 
L 317.298579 85.61352 
L 317.91337 86.15177 
L 318.060423 86.281501 
L 318.771952 86.913613 
L 318.822266 86.958656 
L 319.58411 87.645424 
L 319.617197 87.675457 
L 320.345954 88.342051 
L 320.449378 88.437301 
L 321.107797 89.048374 
L 321.269156 89.199144 
L 321.869641 89.764594 
L 322.076811 89.960988 
L 322.631485 90.490922 
L 322.872614 90.722832 
L 323.393328 91.227571 
L 323.656828 91.484675 
L 324.155172 91.974762 
L 324.429707 92.246519 
L 324.917016 92.732722 
L 325.191498 93.008363 
L 325.678859 93.50168 
L 325.942442 93.770206 
L 326.440703 94.281875 
L 326.682771 94.53205 
L 327.202547 95.07355 
L 327.412712 95.293894 
L 327.964391 95.876956 
L 328.132486 96.055738 
L 328.726234 96.692349 
L 328.842305 96.817581 
L 329.488078 97.519992 
L 329.54238 97.579425 
L 330.232792 98.341269 
L 330.249922 98.360327 
L 330.913416 99.103112 
L 331.011765 99.214125 
L 331.584827 99.864956 
L 331.773609 100.081136 
L 332.247216 100.6268 
L 332.535453 100.961656 
L 332.900767 101.388643 
L 333.297296 101.855992 
L 333.54566 102.150487 
L 334.05914 102.764456 
L 334.182071 102.912331 
L 334.810095 103.674174 
L 334.820984 103.687498 
L 335.429072 104.436018 
L 335.582827 104.626895 
L 336.040022 105.197862 
L 336.344671 105.581581 
L 336.643105 105.959705 
L 337.106515 106.55191 
L 337.238479 106.721549 
L 337.826007 107.483393 
L 337.868358 107.538799 
L 338.405177 108.245237 
L 338.630202 108.543947 
L 338.97705 109.00708 
L 339.392046 109.566068 
L 339.54177 109.768924 
L 340.099104 110.530768 
L 340.15389 110.60634 
L 340.6485 111.292611 
L 340.915733 111.666699 
L 341.191126 112.054455 
L 341.677577 112.745517 
L 341.727114 112.816299 
L 342.255346 113.578142 
L 342.439421 113.846052 
L 342.776833 114.339986 
L 343.201264 114.96696 
L 343.29204 115.10183 
L 343.799981 115.863673 
L 343.963108 116.11064 
L 344.30124 116.625517 
L 344.724952 117.276678 
L 344.79656 117.387361 
L 345.284684 118.149204 
L 345.486795 118.467656 
L 345.766589 118.911048 
L 346.242839 119.672892 
L 346.248639 119.682264 
L 346.711635 120.434736 
L 347.010483 120.92506 
L 347.175022 121.196579 
L 347.632147 121.958423 
L 347.772326 122.194395 
L 348.082927 122.720267 
L 348.528559 123.48211 
L 348.53417 123.491805 
L 348.967021 124.243954 
L 349.296014 124.821269 
L 349.400568 125.005798 
L 349.827721 125.767641 
L 350.057857 126.182314 
L 350.249424 126.529485 
L 350.665433 127.291329 
L 350.819701 127.576855 
L 351.075569 128.053172 
L 351.480554 128.815016 
L 351.581545 129.007089 
L 351.879394 129.57686 
L 352.273473 130.338703 
L 352.343389 130.475396 
L 352.661285 131.100547 
L 353.044571 131.862391 
L 353.105232 131.98436 
L 353.421617 132.624235 
L 353.794223 133.386078 
L 353.867076 133.536791 
L 354.160763 134.147922 
L 354.522796 134.909766 
L 354.62892 135.13575 
L 354.879086 135.671609 
L 355.230654 136.433453 
L 355.390763 136.784578 
L 355.576945 137.195297 
L 355.918154 137.95714 
L 356.152607 138.486933 
L 356.254693 138.718984 
L 356.585648 139.480828 
L 356.912665 140.242671 
L 356.914451 140.246886 
L 357.233484 141.004515 
L 357.550361 141.766359 
L 357.676294 142.073115 
L 357.862004 142.528202 
L 358.168846 143.290046 
L 358.438138 143.967354 
L 358.471547 144.05189 
L 358.768457 144.813734 
L 359.06147 145.575577 
L 359.199982 145.940752 
L 359.349527 146.337421 
L 359.632719 147.099265 
L 359.912033 147.861108 
L 359.961825 147.998947 
L 360.18586 148.622952 
L 360.455462 149.384796 
L 360.721201 150.146639 
L 360.723669 150.153827 
L 360.981214 150.908483 
L 361.23735 151.670327 
L 361.485513 152.419732 
L 361.489606 152.43217 
L 361.736248 153.194014 
L 361.979042 153.955858 
L 362.217996 154.717701 
L 362.247356 154.812918 
L 362.45162 155.479545 
L 362.681195 156.241389 
L 362.906938 157.003233 
L 363.0092 157.35448 
L 363.127983 157.765076 
L 363.344463 158.52692 
L 363.557117 159.288764 
L 363.76595 160.050607 
L 363.771044 160.069551 
L 363.969499 160.812451 
L 364.169191 161.574295 
L 364.365068 162.336138 
L 364.532888 163.001887 
L 364.556954 163.097982 
L 364.743814 163.859826 
L 364.926865 164.621669 
L 365.106106 165.383513 
L 365.28154 166.145357 
L 365.294731 166.203956 
L 365.451994 166.9072 
L 365.61855 167.669044 
L 365.781303 168.430888 
L 365.940254 169.192732 
L 366.056575 169.764023 
L 366.095114 169.954575 
L 366.245328 170.716419 
L 366.391747 171.478263 
L 366.534369 172.240106 
L 366.673193 173.00195 
L 366.808218 173.763794 
L 366.818419 173.82305 
L 366.938539 174.525637 
L 367.064996 175.287481 
L 367.187663 176.049325 
L 367.306538 176.811168 
L 367.421618 177.573012 
L 367.532902 178.334856 
L 367.580262 178.670635 
L 367.639938 179.096699 
L 367.742841 179.858543 
L 367.84196 180.620387 
L 367.937292 181.382231 
L 368.028837 182.144074 
L 368.116591 182.905918 
L 368.200552 183.667762 
L 368.280718 184.429605 
L 368.342106 185.042045 
L 368.356975 185.191449 
L 368.428998 185.953293 
L 368.497243 186.715136 
L 368.561709 187.47698 
L 368.622394 188.238824 
L 368.679295 189.000667 
L 368.732412 189.762511 
L 368.781743 190.524355 
L 368.827286 191.286198 
L 368.869039 192.048042 
L 368.907002 192.809886 
L 368.941172 193.57173 
L 368.971549 194.333573 
L 368.998131 195.095417 
L 369.020918 195.857261 
L 369.039908 196.619104 
L 369.055101 197.380948 
L 369.066496 198.142792 
L 369.074093 198.904635 
L 369.077892 199.666479 
L 369.077892 200.428323 
L 369.074093 201.190166 
L 369.066496 201.95201 
L 369.055101 202.713854 
L 369.039908 203.475697 
L 369.020918 204.237541 
L 368.998131 204.999385 
L 368.971549 205.761229 
L 368.941172 206.523072 
L 368.907002 207.284916 
L 368.869039 208.04676 
L 368.827286 208.808603 
L 368.781743 209.570447 
L 368.732412 210.332291 
L 368.679295 211.094134 
L 368.622394 211.855978 
L 368.561709 212.617822 
L 368.497243 213.379665 
L 368.428998 214.141509 
L 368.356975 214.903353 
L 368.342106 215.052757 
L 368.280718 215.665196 
L 368.200552 216.42704 
L 368.116591 217.188884 
L 368.028837 217.950728 
L 367.937292 218.712571 
L 367.84196 219.474415 
L 367.742841 220.236259 
L 367.639938 220.998102 
L 367.580262 221.424167 
L 367.532902 221.759946 
L 367.421618 222.52179 
L 367.306538 223.283633 
L 367.187663 224.045477 
L 367.064996 224.807321 
L 366.938539 225.569164 
L 366.818419 226.271751 
L 366.808218 226.331008 
L 366.673193 227.092852 
L 366.534369 227.854695 
L 366.391747 228.616539 
L 366.245328 229.378383 
L 366.095114 230.140227 
L 366.056575 230.330779 
L 365.940254 230.90207 
L 365.781303 231.663914 
L 365.61855 232.425758 
L 365.451994 233.187601 
L 365.294731 233.890846 
L 365.28154 233.949445 
L 365.106106 234.711289 
L 364.926865 235.473132 
L 364.743814 236.234976 
L 364.556954 236.99682 
L 364.532888 237.092915 
L 364.365068 237.758663 
L 364.169191 238.520507 
L 363.969499 239.282351 
L 363.771044 240.025251 
L 363.76595 240.044194 
L 363.557117 240.806038 
L 363.344463 241.567882 
L 363.127983 242.329726 
L 363.0092 242.740322 
L 362.906938 243.091569 
L 362.681195 243.853413 
L 362.45162 244.615257 
L 362.247356 245.281884 
L 362.217996 245.3771 
L 361.979042 246.138944 
L 361.736248 246.900788 
L 361.489606 247.662631 
L 361.485513 247.67507 
L 361.23735 248.424475 
L 360.981214 249.186319 
L 360.723669 249.940975 
L 360.721201 249.948162 
L 360.455462 250.710006 
L 360.18586 251.47185 
L 359.961825 252.095855 
L 359.912033 252.233693 
L 359.632719 252.995537 
L 359.349527 253.757381 
L 359.199982 254.15405 
L 359.06147 254.519225 
L 358.768457 255.281068 
L 358.471547 256.042912 
L 358.438138 256.127448 
L 358.168846 256.804756 
L 357.862004 257.566599 
L 357.676294 258.021687 
L 357.550361 258.328443 
L 357.233484 259.090287 
L 356.914451 259.847916 
L 356.912665 259.85213 
L 356.585648 260.613974 
L 356.254693 261.375818 
L 356.152607 261.607869 
L 355.918154 262.137661 
L 355.576945 262.899505 
L 355.390763 263.310224 
L 355.230654 263.661349 
L 354.879086 264.423192 
L 354.62892 264.959052 
L 354.522796 265.185036 
L 354.160763 265.94688 
L 353.867076 266.558011 
L 353.794223 266.708724 
L 353.421617 267.470567 
L 353.105232 268.110442 
L 353.044571 268.232411 
L 352.661285 268.994255 
L 352.343389 269.619406 
L 352.273473 269.756098 
L 351.879394 270.517942 
L 351.581545 271.087713 
L 351.480554 271.279786 
L 351.075569 272.041629 
L 350.819701 272.517947 
L 350.665433 272.803473 
L 350.249424 273.565317 
L 350.057857 273.912488 
L 349.827721 274.32716 
L 349.400568 275.089004 
L 349.296014 275.273533 
L 348.967021 275.850848 
L 348.53417 276.602997 
L 348.528559 276.612691 
L 348.082927 277.374535 
L 347.772326 277.900407 
L 347.632147 278.136379 
L 347.175022 278.898223 
L 347.010483 279.169741 
L 346.711635 279.660066 
L 346.248639 280.412537 
L 346.242839 280.42191 
L 345.766589 281.183754 
L 345.486795 281.627146 
L 345.284684 281.945597 
L 344.79656 282.707441 
L 344.724952 282.818124 
L 344.30124 283.469285 
L 343.963108 283.984162 
L 343.799981 284.231128 
L 343.29204 284.992972 
L 343.201264 285.127841 
L 342.776833 285.754816 
L 342.439421 286.24875 
L 342.255346 286.516659 
L 341.727114 287.278503 
L 341.677577 287.349285 
L 341.191126 288.040347 
L 340.915733 288.428102 
L 340.6485 288.80219 
L 340.15389 289.488462 
L 340.099104 289.564034 
L 339.54177 290.325878 
L 339.392046 290.528733 
L 338.97705 291.087722 
L 338.630202 291.550854 
L 338.405177 291.849565 
L 337.868358 292.556002 
L 337.826007 292.611409 
L 337.238479 293.373253 
L 337.106515 293.542891 
L 336.643105 294.135096 
L 336.344671 294.513221 
L 336.040022 294.89694 
L 335.582827 295.467906 
L 335.429072 295.658784 
L 334.820984 296.407303 
L 334.810095 296.420627 
L 334.182071 297.182471 
L 334.05914 297.330346 
L 333.54566 297.944315 
L 333.297296 298.23881 
L 332.900767 298.706158 
L 332.535453 299.133146 
L 332.247216 299.468002 
L 331.773609 300.013666 
L 331.584827 300.229846 
L 331.011765 300.880677 
L 330.913416 300.991689 
L 330.249922 301.734475 
L 330.232792 301.753533 
L 329.54238 302.515377 
L 329.488078 302.57481 
L 328.842305 303.277221 
L 328.726234 303.402453 
L 328.132486 304.039064 
L 327.964391 304.217846 
L 327.412712 304.800908 
L 327.202547 305.021251 
L 326.682771 305.562752 
L 326.440703 305.812927 
L 325.942442 306.324595 
L 325.678859 306.593122 
L 325.191498 307.086439 
L 324.917016 307.36208 
L 324.429707 307.848283 
L 324.155172 308.120039 
L 323.656828 308.610126 
L 323.393328 308.867231 
L 322.872614 309.37197 
L 322.631485 309.60388 
L 322.076811 310.133814 
L 321.869641 310.330208 
L 321.269156 310.895657 
L 321.107797 311.046428 
L 320.449378 311.657501 
L 320.345954 311.75275 
L 319.617197 312.419345 
L 319.58411 312.449378 
L 318.822266 313.136146 
L 318.771952 313.181188 
L 318.060423 313.813301 
L 317.91337 313.943032 
L 317.298579 314.481282 
L 317.041384 314.704876 
L 316.536735 315.140276 
L 316.15567 315.46672 
L 315.774892 315.790464 
L 315.255896 316.228563 
L 315.013048 316.432024 
L 314.341714 316.990407 
L 314.251204 317.065128 
L 313.48936 317.689461 
L 313.412172 317.752251 
L 312.727517 318.305045 
L 312.466665 318.514094 
L 311.965673 318.912626 
L 311.505499 319.275938 
L 311.203829 319.512361 
L 310.52827 320.037782 
L 310.441986 320.104401 
L 309.680142 320.688067 
L 309.53339 320.799625 
L 308.918298 321.263803 
L 308.520744 321.561469 
L 308.156455 321.832255 
L 307.490559 322.323313 
L 307.394611 322.39356 
L 306.632767 322.946852 
L 306.440781 323.085156 
L 305.870924 323.492731 
L 305.371516 323.847 
L 305.10908 324.031841 
L 304.347236 324.563987 
L 304.282477 324.608844 
L 303.585393 325.088263 
L 303.171247 325.370687 
L 302.823549 325.606128 
L 302.061705 326.117589 
L 302.039255 326.132531 
L 301.299861 326.621189 
L 300.882858 326.894375 
L 300.538018 327.118713 
L 299.776174 327.609946 
L 299.703766 327.656219 
L 299.01433 328.093751 
L 298.498632 328.418062 
L 298.252487 328.571793 
L 297.490643 329.04325 
L 297.267761 329.179906 
L 296.728799 329.508097 
L 296.009891 329.94175 
L 295.966956 329.967473 
L 295.205112 330.419602 
L 294.72194 330.703593 
L 294.443268 330.866282 
L 293.681425 331.30673 
L 293.404196 331.465437 
L 292.919581 331.741007 
L 292.157737 332.169894 
L 292.054774 332.227281 
L 291.395894 332.592056 
L 290.671248 332.989124 
L 290.63405 333.009372 
L 289.872206 333.419829 
L 289.251054 333.750968 
L 289.110362 333.82548 
L 288.348519 334.224721 
L 287.7928 334.512812 
L 287.586675 334.618974 
L 286.824831 335.007118 
L 286.293861 335.274655 
L 286.062988 335.390233 
L 285.301144 335.767398 
L 284.75136 336.036499 
L 284.5393 336.139631 
L 283.777457 336.505934 
L 283.162136 336.798343 
L 283.015613 336.867531 
L 282.253769 337.22309 
L 281.522706 337.560186 
L 281.491926 337.57429 
L 280.730082 337.919223 
L 279.968238 338.259893 
L 279.82756 338.32203 
L 279.206395 338.594682 
L 278.444551 338.924853 
L 278.072912 339.083874 
L 277.682707 339.249806 
L 276.920863 339.569596 
L 276.25426 339.845718 
L 276.15902 339.884927 
L 275.397176 340.194454 
L 274.635332 340.499758 
L 274.362625 340.607561 
L 273.873489 340.799747 
L 273.111645 341.094916 
L 272.392955 341.369405 
L 272.349801 341.385788 
L 271.587958 341.670938 
L 270.826114 341.951896 
L 270.332493 342.131249 
L 270.06427 342.228127 
L 269.302427 342.499195 
L 268.540583 342.766086 
L 268.172364 342.893092 
L 267.778739 343.028066 
L 267.016896 343.285196 
L 266.255052 343.538166 
L 265.897596 343.654936 
L 265.493208 343.786272 
L 264.731364 344.02961 
L 263.969521 344.268805 
L 263.489992 344.41678 
L 263.207677 344.5034 
L 262.445833 344.733091 
L 261.68399 344.958655 
L 260.927215 345.178623 
L 260.922146 345.180088 
L 260.160302 345.396276 
L 259.398459 345.608355 
L 258.636615 345.816327 
L 258.172787 345.940467 
L 257.874771 346.019787 
L 257.112928 346.218524 
L 256.351084 346.413172 
L 255.58924 346.603732 
L 255.186572 346.702311 
L 254.827397 346.789763 
L 254.065553 346.97123 
L 253.303709 347.148626 
L 252.541865 347.321953 
L 251.901846 347.464154 
L 251.780022 347.491077 
L 251.018178 347.655452 
L 250.256334 347.815775 
L 249.494491 347.972047 
L 248.732647 348.124268 
L 248.209661 348.225998 
L 247.970803 348.272217 
L 247.20896 348.415643 
L 246.447116 348.555038 
L 245.685272 348.690401 
L 244.923429 348.821732 
L 244.161585 348.949034 
L 243.921811 348.987842 
L 243.399741 349.071907 
L 242.637898 349.190586 
L 241.876054 349.305252 
L 241.11421 349.415907 
L 240.352366 349.52255 
L 239.590523 349.625182 
L 238.828679 349.723804 
L 238.620328 349.749685 
L 238.066835 349.8181 
L 237.304992 349.908284 
L 236.543148 349.994476 
L 235.781304 350.076675 
L 235.019461 350.154883 
L 234.257617 350.229099 
L 233.495773 350.299323 
L 232.73393 350.365555 
L 231.972086 350.427796 
L 231.210242 350.486044 
L 230.852461 350.511529 
L 230.448399 350.540174 
L 229.686555 350.590215 
L 228.924711 350.636283 
L 228.162868 350.678376 
L 227.401024 350.716495 
L 226.63918 350.750638 
L 225.877336 350.780807 
L 225.115493 350.807 
L 224.353649 350.829217 
L 223.591805 350.847458 
L 222.829962 350.861722 
L 222.068118 350.872009 
L 221.306274 350.878317 
L 220.544431 350.880647 
L 219.782587 350.878998 
L 219.020743 350.873368 
L 218.2589 350.863758 
L 217.497056 350.850165 
L 216.735212 350.83259 
L 215.973369 350.81103 
L 215.211525 350.785485 
L 214.449681 350.755954 
L 213.687837 350.722435 
L 212.925994 350.684926 
L 212.16415 350.643427 
L 211.402306 350.597936 
L 210.640463 350.54845 
z
M 231.972086 249.994392 
L 232.73393 250.084867 
L 233.495773 250.164073 
L 234.257617 250.232129 
L 235.019461 250.289135 
L 235.781304 250.335176 
L 236.543148 250.370313 
L 237.304992 250.394594 
L 238.066835 250.408044 
L 238.828679 250.410671 
L 239.590523 250.402461 
L 240.352366 250.383385 
L 241.11421 250.35339 
L 241.876054 250.312407 
L 242.637898 250.260343 
L 243.399741 250.197087 
L 244.161585 250.122509 
L 244.923429 250.036457 
L 245.612411 249.948162 
L 245.685272 249.939015 
L 246.447116 249.832471 
L 247.20896 249.714178 
L 247.970803 249.583898 
L 248.732647 249.441374 
L 249.494491 249.286325 
L 249.950384 249.186319 
L 250.256334 249.120247 
L 251.018178 248.943981 
L 251.780022 248.75451 
L 252.541865 248.551459 
L 252.990183 248.424475 
L 253.303709 248.336739 
L 254.065553 248.111186 
L 254.827397 247.871077 
L 255.451607 247.662631 
L 255.58924 247.617094 
L 256.351084 247.353062 
L 257.112928 247.073254 
L 257.559897 246.900788 
L 257.874771 246.780056 
L 258.636615 246.474353 
L 259.398459 246.151393 
L 259.426815 246.138944 
L 260.160302 245.817996 
L 260.922146 245.466569 
L 261.109083 245.3771 
L 261.68399 245.102254 
L 262.445833 244.720397 
L 262.648307 244.615257 
L 263.207677 244.324453 
L 263.969521 243.909862 
L 264.070126 243.853413 
L 264.731364 243.481113 
L 265.392996 243.091569 
L 265.493208 243.032273 
L 266.255052 242.567875 
L 266.631339 242.329726 
L 267.016896 242.083917 
L 267.778739 241.579414 
L 267.79574 241.567882 
L 268.540583 241.057732 
L 268.895446 240.806038 
L 269.302427 240.514105 
L 269.936355 240.044194 
L 270.06427 239.948142 
L 270.826114 239.360413 
L 270.924837 239.282351 
L 271.587958 238.749924 
L 271.865949 238.520507 
L 272.349801 238.114362 
L 272.76289 237.758663 
L 273.111645 237.452698 
L 273.61919 236.99682 
L 273.873489 236.763699 
L 274.43791 236.234976 
L 274.635332 236.045899 
L 275.221699 235.473132 
L 275.397176 235.297578 
L 275.972838 234.711289 
L 276.15902 234.516736 
L 276.693282 233.949445 
L 276.920863 233.70106 
L 277.384691 233.187601 
L 277.682707 232.847886 
L 278.048461 232.425758 
L 278.444551 231.954159 
L 278.68575 231.663914 
L 279.206395 231.016386 
L 279.297498 230.90207 
L 279.886198 230.140227 
L 279.968238 230.030614 
L 280.453318 229.378383 
L 280.730082 228.991779 
L 280.997465 228.616539 
L 281.491926 227.89423 
L 281.518909 227.854695 
L 282.023365 227.092852 
L 282.253769 226.729867 
L 282.506814 226.331008 
L 282.969685 225.569164 
L 283.015613 225.490923 
L 283.417658 224.807321 
L 283.777457 224.164561 
L 283.844351 224.045477 
L 284.256986 223.283633 
L 284.5393 222.735721 
L 284.65018 222.52179 
L 285.029227 221.759946 
L 285.301144 221.184376 
L 285.389872 220.998102 
L 285.737799 220.236259 
L 286.062988 219.48209 
L 286.066332 219.474415 
L 286.385203 218.712571 
L 286.685761 217.950728 
L 286.824831 217.5794 
L 286.973093 217.188884 
L 287.247301 216.42704 
L 287.504869 215.665196 
L 287.586675 215.409569 
L 287.751392 214.903353 
L 287.984595 214.141509 
L 288.202495 213.379665 
L 288.348519 212.833788 
L 288.407433 212.617822 
L 288.602303 211.855978 
L 288.782903 211.094134 
L 288.94965 210.332291 
L 289.10293 209.570447 
L 289.110362 209.530368 
L 289.24747 208.808603 
L 289.379065 208.04676 
L 289.497768 207.284916 
L 289.603849 206.523072 
L 289.697548 205.761229 
L 289.779077 204.999385 
L 289.848619 204.237541 
L 289.872206 203.926831 
L 289.907486 203.475697 
L 289.955058 202.713854 
L 289.990646 201.95201 
L 290.014327 201.190166 
L 290.026154 200.428323 
L 290.026154 199.666479 
L 290.014327 198.904635 
L 289.990646 198.142792 
L 289.955058 197.380948 
L 289.907486 196.619104 
L 289.872206 196.167971 
L 289.848619 195.857261 
L 289.779077 195.095417 
L 289.697548 194.333573 
L 289.603849 193.57173 
L 289.497768 192.809886 
L 289.379065 192.048042 
L 289.24747 191.286198 
L 289.110362 190.564434 
L 289.10293 190.524355 
L 288.94965 189.762511 
L 288.782903 189.000667 
L 288.602303 188.238824 
L 288.407433 187.47698 
L 288.348519 187.261014 
L 288.202495 186.715136 
L 287.984595 185.953293 
L 287.751392 185.191449 
L 287.586675 184.685233 
L 287.504869 184.429605 
L 287.247301 183.667762 
L 286.973093 182.905918 
L 286.824831 182.515402 
L 286.685761 182.144074 
L 286.385203 181.382231 
L 286.066332 180.620387 
L 286.062988 180.612712 
L 285.737799 179.858543 
L 285.389872 179.096699 
L 285.301144 178.910426 
L 285.029227 178.334856 
L 284.65018 177.573012 
L 284.5393 177.35908 
L 284.256986 176.811168 
L 283.844351 176.049325 
L 283.777457 175.930241 
L 283.417658 175.287481 
L 283.015613 174.603879 
L 282.969685 174.525637 
L 282.506814 173.763794 
L 282.253769 173.364934 
L 282.023365 173.00195 
L 281.518909 172.240106 
L 281.491926 172.200572 
L 280.997465 171.478263 
L 280.730082 171.103022 
L 280.453318 170.716419 
L 279.968238 170.064187 
L 279.886198 169.954575 
L 279.297498 169.192732 
L 279.206395 169.078416 
L 278.68575 168.430888 
L 278.444551 168.140642 
L 278.048461 167.669044 
L 277.682707 167.246916 
L 277.384691 166.9072 
L 276.920863 166.393742 
L 276.693282 166.145357 
L 276.15902 165.578065 
L 275.972838 165.383513 
L 275.397176 164.797224 
L 275.221699 164.621669 
L 274.635332 164.048903 
L 274.43791 163.859826 
L 273.873489 163.331102 
L 273.61919 163.097982 
L 273.111645 162.642103 
L 272.76289 162.336138 
L 272.349801 161.98044 
L 271.865949 161.574295 
L 271.587958 161.344877 
L 270.924837 160.812451 
L 270.826114 160.734388 
L 270.06427 160.146659 
L 269.936355 160.050607 
L 269.302427 159.580697 
L 268.895446 159.288764 
L 268.540583 159.03707 
L 267.79574 158.52692 
L 267.778739 158.515388 
L 267.016896 158.010885 
L 266.631339 157.765076 
L 266.255052 157.526927 
L 265.493208 157.062528 
L 265.392996 157.003233 
L 264.731364 156.613688 
L 264.070126 156.241389 
L 263.969521 156.184939 
L 263.207677 155.770349 
L 262.648307 155.479545 
L 262.445833 155.374405 
L 261.68399 154.992548 
L 261.109083 154.717701 
L 260.922146 154.628233 
L 260.160302 154.276806 
L 259.426815 153.955858 
L 259.398459 153.943409 
L 258.636615 153.620449 
L 257.874771 153.314745 
L 257.559897 153.194014 
L 257.112928 153.021548 
L 256.351084 152.74174 
L 255.58924 152.477708 
L 255.451607 152.43217 
L 254.827397 152.223725 
L 254.065553 151.983615 
L 253.303709 151.758063 
L 252.990183 151.670327 
L 252.541865 151.543343 
L 251.780022 151.340292 
L 251.018178 151.150821 
L 250.256334 150.974555 
L 249.950384 150.908483 
L 249.494491 150.808477 
L 248.732647 150.653427 
L 247.970803 150.510903 
L 247.20896 150.380624 
L 246.447116 150.262331 
L 245.685272 150.155787 
L 245.612411 150.146639 
L 244.923429 150.058345 
L 244.161585 149.972292 
L 243.399741 149.897714 
L 242.637898 149.834459 
L 241.876054 149.782395 
L 241.11421 149.741411 
L 240.352366 149.711417 
L 239.590523 149.69234 
L 238.828679 149.684131 
L 238.066835 149.686758 
L 237.304992 149.700208 
L 236.543148 149.724488 
L 235.781304 149.759626 
L 235.019461 149.805666 
L 234.257617 149.862673 
L 233.495773 149.930729 
L 232.73393 150.009935 
L 231.972086 150.10041 
L 231.625577 150.146639 
L 231.210242 150.200775 
L 230.448399 150.311146 
L 229.686555 150.432964 
L 228.924711 150.566419 
L 228.162868 150.711723 
L 227.401024 150.8691 
L 227.223107 150.908483 
L 226.63918 151.035383 
L 225.877336 151.212938 
L 225.115493 151.403078 
L 224.353649 151.6061 
L 224.125642 151.670327 
L 223.591805 151.818487 
L 222.829962 152.042512 
L 222.068118 152.280147 
L 221.605517 152.43217 
L 221.306274 152.529337 
L 220.544431 152.78892 
L 219.782587 153.063 
L 219.434477 153.194014 
L 219.020743 153.348315 
L 218.2589 153.645665 
L 217.50349 153.955858 
L 217.497056 153.958481 
L 216.735212 154.280084 
L 215.973369 154.617914 
L 215.756258 154.717701 
L 215.211525 154.967063 
L 214.449681 155.331074 
L 214.149829 155.479545 
L 213.687837 155.707876 
L 212.925994 156.099467 
L 212.65883 156.241389 
L 212.16415 156.504258 
L 211.402306 156.924981 
L 211.264473 157.003233 
L 210.640463 157.358391 
L 209.952866 157.765076 
L 209.878619 157.809166 
L 209.116775 158.272871 
L 208.712811 158.52692 
L 208.354932 158.753378 
L 207.593088 159.250669 
L 207.535924 159.288764 
L 206.831244 159.762273 
L 206.414508 160.050607 
L 206.069401 160.291731 
L 205.344145 160.812451 
L 205.307557 160.839019 
L 204.545713 161.402185 
L 204.318083 161.574295 
L 203.78387 161.983628 
L 203.333709 162.336138 
L 203.022026 162.583855 
L 202.387769 163.097982 
L 202.260182 163.203106 
L 201.498338 163.841544 
L 201.476782 163.859826 
L 200.736495 164.499142 
L 200.596617 164.621669 
L 199.974651 165.17727 
L 199.746559 165.383513 
L 199.212807 165.876385 
L 198.924439 166.145357 
L 198.450964 166.596993 
L 198.128325 166.9072 
L 197.68912 167.339646 
L 197.356502 167.669044 
L 196.927276 168.10493 
L 196.607451 168.430888 
L 196.165433 168.893449 
L 195.879834 169.192732 
L 195.403589 169.705813 
L 195.172478 169.954575 
L 194.641745 170.54261 
L 194.484366 170.716419 
L 193.879902 171.404385 
L 193.814626 171.478263 
L 193.161165 172.240106 
L 193.118058 172.291912 
L 192.521949 173.00195 
L 192.356214 173.206127 
L 191.898309 173.763794 
L 191.594371 174.147026 
L 191.289808 174.525637 
L 190.832527 175.114732 
L 190.696133 175.287481 
L 190.115334 176.049325 
L 190.070683 176.109903 
L 189.542878 176.811168 
L 189.308839 177.134464 
L 188.983636 177.573012 
L 188.546996 178.185645 
L 188.437689 178.334856 
L 187.899827 179.096699 
L 187.785152 179.265585 
L 187.369366 179.858543 
L 187.023308 180.373582 
L 186.851368 180.620387 
L 186.342012 181.382231 
L 186.261465 181.507748 
L 185.835694 182.144074 
L 185.499621 182.669882 
L 185.341532 182.905918 
L 184.853184 183.667762 
L 184.737777 183.856192 
L 184.367202 184.429605 
L 183.975934 185.065633 
L 183.893728 185.191449 
L 183.418775 185.953293 
L 183.21409 186.299084 
L 182.950127 186.715136 
L 182.49194 187.47698 
L 182.452246 187.546706 
L 182.025371 188.238824 
L 181.690403 188.815021 
L 181.572153 189.000667 
L 181.115348 189.762511 
L 180.928559 190.095308 
L 180.660475 190.524355 
L 180.21641 191.286198 
L 180.166715 191.378307 
L 179.756201 192.048042 
L 179.404872 192.67017 
L 179.313004 192.809886 
L 178.855774 193.57173 
L 178.643028 193.964563 
L 178.401472 194.333573 
L 177.957115 195.095417 
L 177.881184 195.245076 
L 177.483983 195.857261 
L 177.11934 196.516851 
L 177.040116 196.619104 
L 176.558379 197.380948 
L 176.357497 197.795085 
L 176.068588 198.142792 
L 175.635185 198.904635 
L 175.595653 199.04123 
L 174.92011 199.666479 
L 174.92011 200.428323 
L 175.595653 201.053572 
L 175.635185 201.190166 
L 176.068588 201.95201 
L 176.357497 202.299716 
L 176.558379 202.713854 
L 177.040116 203.475697 
L 177.11934 203.57795 
L 177.483983 204.237541 
L 177.881184 204.849725 
L 177.957115 204.999385 
L 178.401472 205.761229 
L 178.643028 206.130239 
L 178.855774 206.523072 
L 179.313004 207.284916 
L 179.404872 207.424631 
L 179.756201 208.04676 
L 180.166715 208.716494 
L 180.21641 208.808603 
L 180.660475 209.570447 
L 180.928559 209.999493 
L 181.115348 210.332291 
L 181.572153 211.094134 
L 181.690403 211.279781 
L 182.025371 211.855978 
L 182.452246 212.548096 
L 182.49194 212.617822 
L 182.950127 213.379665 
L 183.21409 213.795718 
L 183.418775 214.141509 
L 183.893728 214.903353 
L 183.975934 215.029169 
L 184.367202 215.665196 
L 184.737777 216.23861 
L 184.853184 216.42704 
L 185.341532 217.188884 
L 185.499621 217.424919 
L 185.835694 217.950728 
L 186.261465 218.587054 
L 186.342012 218.712571 
L 186.851368 219.474415 
L 187.023308 219.721219 
L 187.369366 220.236259 
L 187.785152 220.829217 
L 187.899827 220.998102 
L 188.437689 221.759946 
L 188.546996 221.909157 
L 188.983636 222.52179 
L 189.308839 222.960337 
L 189.542878 223.283633 
L 190.070683 223.984899 
L 190.115334 224.045477 
L 190.696133 224.807321 
L 190.832527 224.98007 
L 191.289808 225.569164 
L 191.594371 225.947776 
L 191.898309 226.331008 
L 192.356214 226.888674 
L 192.521949 227.092852 
L 193.118058 227.802889 
L 193.161165 227.854695 
L 193.814626 228.616539 
L 193.879902 228.690416 
L 194.484366 229.378383 
L 194.641745 229.552192 
L 195.172478 230.140227 
L 195.403589 230.388989 
L 195.879834 230.90207 
L 196.165433 231.201352 
L 196.607451 231.663914 
L 196.927276 231.989872 
L 197.356502 232.425758 
L 197.68912 232.755155 
L 198.128325 233.187601 
L 198.450964 233.497809 
L 198.924439 233.949445 
L 199.212807 234.218417 
L 199.746559 234.711289 
L 199.974651 234.917531 
L 200.596617 235.473132 
L 200.736495 235.59566 
L 201.476782 236.234976 
L 201.498338 236.253258 
L 202.260182 236.891696 
L 202.387769 236.99682 
L 203.022026 237.510947 
L 203.333709 237.758663 
L 203.78387 238.111173 
L 204.318083 238.520507 
L 204.545713 238.692616 
L 205.307557 239.255782 
L 205.344145 239.282351 
L 206.069401 239.803071 
L 206.414508 240.044194 
L 206.831244 240.332529 
L 207.535924 240.806038 
L 207.593088 240.844133 
L 208.354932 241.341424 
L 208.712811 241.567882 
L 209.116775 241.821931 
L 209.878619 242.285636 
L 209.952866 242.329726 
L 210.640463 242.736411 
L 211.264473 243.091569 
L 211.402306 243.169821 
L 212.16415 243.590543 
L 212.65883 243.853413 
L 212.925994 243.995335 
L 213.687837 244.386926 
L 214.149829 244.615257 
L 214.449681 244.763727 
L 215.211525 245.127739 
L 215.756258 245.3771 
L 215.973369 245.476888 
L 216.735212 245.814718 
L 217.497056 246.13632 
L 217.50349 246.138944 
L 218.2589 246.449136 
L 219.020743 246.746487 
L 219.434477 246.900788 
L 219.782587 247.031802 
L 220.544431 247.305882 
L 221.306274 247.565465 
L 221.605517 247.662631 
L 222.068118 247.814654 
L 222.829962 248.05229 
L 223.591805 248.276315 
L 224.125642 248.424475 
L 224.353649 248.488702 
L 225.115493 248.691723 
L 225.877336 248.881864 
L 226.63918 249.059418 
L 227.223107 249.186319 
L 227.401024 249.225701 
L 228.162868 249.383079 
L 228.924711 249.528382 
L 229.686555 249.661838 
L 230.448399 249.783655 
L 231.210242 249.894027 
L 231.625577 249.948162 
L 231.972086 249.994392 
z
M 136.741625 222.622982 
L 137.503469 222.7541 
L 138.265312 222.862201 
L 139.027156 222.948101 
L 139.789 223.012483 
L 140.550843 223.05589 
L 141.312687 223.078729 
L 142.074531 223.081267 
L 142.836375 223.06363 
L 143.598218 223.025812 
L 144.360062 222.967674 
L 145.121906 222.888958 
L 145.883749 222.789295 
L 146.645593 222.668214 
L 147.407437 222.525164 
L 147.423231 222.52179 
L 148.16928 222.367649 
L 148.931124 222.187709 
L 149.692968 221.984352 
L 150.444402 221.759946 
L 150.454811 221.7569 
L 151.216655 221.515373 
L 151.978499 221.24814 
L 152.630181 220.998102 
L 152.740342 220.956118 
L 153.502186 220.647147 
L 154.26403 220.30989 
L 154.4223 220.236259 
L 155.025874 219.953433 
L 155.787717 219.569545 
L 155.968849 219.474415 
L 156.549561 219.164118 
L 157.311405 218.73007 
L 157.341428 218.712571 
L 158.073248 218.274327 
L 158.587616 217.950728 
L 158.835092 217.789648 
L 159.596936 217.278234 
L 159.72799 217.188884 
L 160.358779 216.739788 
L 160.787825 216.42704 
L 161.120623 216.171963 
L 161.772612 215.665196 
L 161.882467 215.574791 
L 162.64431 214.947643 
L 162.698722 214.903353 
L 163.406154 214.288814 
L 163.577883 214.141509 
L 164.167998 213.597749 
L 164.410181 213.379665 
L 164.929841 212.873677 
L 165.201647 212.617822 
L 165.691685 212.115765 
L 165.95698 211.855978 
L 166.453529 211.323257 
L 166.679721 211.094134 
L 167.215373 210.495679 
L 167.37235 210.332291 
L 167.977216 209.633092 
L 168.036271 209.570447 
L 168.681031 208.808603 
L 168.73906 208.731468 
L 169.311637 208.04676 
L 169.500904 207.78876 
L 169.920393 207.284916 
L 170.262747 206.811334 
L 170.505546 206.523072 
L 171.024591 205.804628 
L 171.062433 205.761229 
L 171.629193 204.999385 
L 171.786435 204.744042 
L 172.182892 204.237541 
L 172.548278 203.656899 
L 172.705531 203.475697 
L 173.219143 202.713854 
L 173.310122 202.52886 
L 173.768282 201.95201 
L 174.071966 201.358727 
L 174.295198 201.190166 
L 174.785099 200.428323 
L 174.785099 199.666479 
L 174.295198 198.904635 
L 174.071966 198.736075 
L 173.768282 198.142792 
L 173.310122 197.565942 
L 173.219143 197.380948 
L 172.705531 196.619104 
L 172.548278 196.437903 
L 172.182892 195.857261 
L 171.786435 195.35076 
L 171.629193 195.095417 
L 171.062433 194.333573 
L 171.024591 194.290174 
L 170.505546 193.57173 
L 170.262747 193.283468 
L 169.920393 192.809886 
L 169.500904 192.306042 
L 169.311637 192.048042 
L 168.73906 191.363334 
L 168.681031 191.286198 
L 168.036271 190.524355 
L 167.977216 190.46171 
L 167.37235 189.762511 
L 167.215373 189.599123 
L 166.679721 189.000667 
L 166.453529 188.771545 
L 165.95698 188.238824 
L 165.691685 187.979037 
L 165.201647 187.47698 
L 164.929841 187.221125 
L 164.410181 186.715136 
L 164.167998 186.497053 
L 163.577883 185.953293 
L 163.406154 185.805987 
L 162.698722 185.191449 
L 162.64431 185.147158 
L 161.882467 184.520011 
L 161.772612 184.429605 
L 161.120623 183.922839 
L 160.787825 183.667762 
L 160.358779 183.355014 
L 159.72799 182.905918 
L 159.596936 182.816568 
L 158.835092 182.305153 
L 158.587616 182.144074 
L 158.073248 181.820475 
L 157.341428 181.382231 
L 157.311405 181.364732 
L 156.549561 180.930684 
L 155.968849 180.620387 
L 155.787717 180.525257 
L 155.025874 180.141369 
L 154.4223 179.858543 
L 154.26403 179.784911 
L 153.502186 179.447654 
L 152.740342 179.138683 
L 152.630181 179.096699 
L 151.978499 178.846662 
L 151.216655 178.579428 
L 150.454811 178.337901 
L 150.444402 178.334856 
L 149.692968 178.110449 
L 148.931124 177.907093 
L 148.16928 177.727153 
L 147.423231 177.573012 
L 147.407437 177.569638 
L 146.645593 177.426588 
L 145.883749 177.305507 
L 145.121906 177.205843 
L 144.360062 177.127128 
L 143.598218 177.06899 
L 142.836375 177.031172 
L 142.074531 177.013535 
L 141.312687 177.016072 
L 140.550843 177.038912 
L 139.789 177.082319 
L 139.027156 177.1467 
L 138.265312 177.2326 
L 137.503469 177.340702 
L 136.741625 177.47182 
L 136.240182 177.573012 
L 135.979781 177.624146 
L 135.217938 177.795343 
L 134.456094 177.991971 
L 133.69425 178.215419 
L 133.325948 178.334856 
L 132.932407 178.461137 
L 132.170563 178.730643 
L 131.408719 179.031396 
L 131.254361 179.096699 
L 130.646876 179.3545 
L 129.885032 179.709898 
L 129.587674 179.858543 
L 129.123188 180.093825 
L 128.361344 180.511872 
L 128.174126 180.620387 
L 127.599501 180.961379 
L 126.941552 181.382231 
L 126.837657 181.450749 
L 126.075813 181.976811 
L 125.845467 182.144074 
L 125.31397 182.546149 
L 124.861066 182.905918 
L 124.552126 183.163482 
L 123.97068 183.667762 
L 123.790282 183.833214 
L 123.159523 184.429605 
L 123.028439 184.561689 
L 122.416874 185.191449 
L 122.266595 185.357664 
L 121.735187 185.953293 
L 121.504751 186.232934 
L 121.109449 186.715136 
L 120.742908 187.203167 
L 120.536714 187.47698 
L 120.013598 188.238824 
L 119.981064 188.290273 
L 119.525404 189.000667 
L 119.21922 189.53466 
L 119.085751 189.762511 
L 118.680561 190.524355 
L 118.457377 190.996 
L 118.315561 191.286198 
L 117.981736 192.048042 
L 117.695533 192.797941 
L 117.690776 192.809886 
L 117.419343 193.57173 
L 117.186264 194.333573 
L 116.988498 195.095417 
L 116.933689 195.345081 
L 116.814323 195.857261 
L 116.668656 196.619104 
L 116.55422 197.380948 
L 116.469601 198.142792 
L 116.413759 198.904635 
L 116.386008 199.666479 
L 116.386008 200.428323 
L 116.413759 201.190166 
L 116.469601 201.95201 
L 116.55422 202.713854 
L 116.668656 203.475697 
L 116.814323 204.237541 
L 116.933689 204.749721 
L 116.988498 204.999385 
L 117.186264 205.761229 
L 117.419343 206.523072 
L 117.690776 207.284916 
L 117.695533 207.296861 
L 117.981736 208.04676 
L 118.315561 208.808603 
L 118.457377 209.098802 
L 118.680561 209.570447 
L 119.085751 210.332291 
L 119.21922 210.560141 
L 119.525404 211.094134 
L 119.981064 211.804529 
L 120.013598 211.855978 
L 120.536714 212.617822 
L 120.742908 212.891634 
L 121.109449 213.379665 
L 121.504751 213.861868 
L 121.735187 214.141509 
L 122.266595 214.737138 
L 122.416874 214.903353 
L 123.028439 215.533113 
L 123.159523 215.665196 
L 123.790282 216.261588 
L 123.97068 216.42704 
L 124.552126 216.93132 
L 124.861066 217.188884 
L 125.31397 217.548653 
L 125.845467 217.950728 
L 126.075813 218.117991 
L 126.837657 218.644053 
L 126.941552 218.712571 
L 127.599501 219.133423 
L 128.174126 219.474415 
L 128.361344 219.58293 
L 129.123188 220.000977 
L 129.587674 220.236259 
L 129.885032 220.384904 
L 130.646876 220.740302 
L 131.254361 220.998102 
L 131.408719 221.063406 
L 132.170563 221.364159 
L 132.932407 221.633664 
L 133.325948 221.759946 
L 133.69425 221.879382 
L 134.456094 222.102831 
L 135.217938 222.299458 
L 135.979781 222.470656 
L 136.240182 222.52179 
L 136.741625 222.622982 
z
" clip-path="url(#p54141b0d26)" style="fill: none; stroke: #08306b; stroke-width: 1.5"/>
   </g>
   <g id="patch_3">
    <path d="M 31.607196 390.127401 
L 31.607196 9.967401 
" style="fill: none; stroke: #b8b7b7; stroke-width: 0.8; stroke-linejoin: miter; stroke-linecap: square"/>
   </g>
   <g id="patch_4">
    <path d="M 411.767196 390.127401 
L 411.767196 9.967401 
" style="fill: none; stroke: #b8b7b7; stroke-width: 0.8; stroke-linejoin: miter; stroke-linecap: square"/>
   </g>
   <g id="patch_5">
    <path d="M 31.607196 390.127401 
L 411.767196 390.127401 
" style="fill: none; stroke: #b8b7b7; stroke-width: 0.8; stroke-linejoin: miter; stroke-linecap: square"/>
   </g>
   <g id="patch_6">
    <path d="M 31.607196 9.967401 
L 411.767196 9.967401 
" style="fill: none; stroke: #b8b7b7; stroke-width: 0.8; stroke-linejoin: miter; stroke-linecap: square"/>
   </g>
  </g>
 </g>
 <defs>
  <clipPath id="p54141b0d26">
   <rect x="31.607196" y="9.967401" width="380.16" height="380.16"/>
  </clipPath>
 </defs>
</svg>
